<?xml version="1.0" standalone="no"?>
<!DOCTYPE svg PUBLIC "-//W3C//DTD SVG 20010904//EN"
 "http://www.w3.org/TR/2001/REC-SVG-20010904/DTD/svg10.dtd">
<svg version="1.0" xmlns="http://www.w3.org/2000/svg"
 width="256.000000pt" height="256.000000pt" viewBox="0 0 256.000000 256.000000"
 preserveAspectRatio="xMidYMid meet">
<metadata>
Created by potrace 1.14, written by Peter Selinger 2001-2017
</metadata>
<g transform="translate(0.000000,256.000000) scale(0.100000,-0.100000)"
fill="#000000" stroke="none">
<path d="M0 1280 l0 -1280 1280 0 1280 0 0 1280 0 1280 -1280 0 -1280 0 0
-1280z m2016 933 c-9 -106 -49 -312 -77 -397 -48 -141 -133 -248 -241 -300
l-70 -34 88 -58 c137 -92 188 -144 234 -238 47 -96 65 -177 56 -264 -17 -164
-103 -275 -276 -354 -121 -56 -197 -70 -405 -75 -191 -5 -203 -4 -451 38 -71
12 -73 12 -120 -16 -59 -34 -194 -169 -248 -248 -22 -31 -41 -55 -44 -52 -2 2
3 27 12 54 9 27 16 62 16 78 1 15 6 38 13 50 23 42 166 190 214 223 l48 32
-73 -6 c-40 -3 -89 -13 -109 -21 -43 -18 -73 -19 -73 -2 0 6 7 31 15 55 51
145 201 377 345 532 48 51 51 53 45 26 -7 -34 -73 -145 -159 -269 -104 -149
-167 -252 -156 -255 5 -2 40 6 77 17 38 11 100 29 138 39 150 41 181 67 129
109 -63 51 -84 75 -84 98 0 34 14 38 41 12 36 -35 271 -97 367 -97 92 0 177
55 168 110 -13 89 -83 147 -236 200 -60 20 -79 32 -98 60 -13 19 -41 44 -62
55 -126 66 -214 146 -258 235 -24 49 -27 67 -27 155 0 88 3 107 27 158 59 126
133 185 281 225 127 34 320 41 467 16 109 -19 239 -20 301 -4 46 13 99 66 139
141 44 83 54 77 46 -28z m-1126 -1083 c-6 -11 -13 -20 -16 -20 -2 0 0 9 6 20
6 11 13 20 16 20 2 0 0 -9 -6 -20z m-20 -38 c0 -5 -7 -17 -15 -28 -14 -18 -14
-17 -4 9 12 27 19 34 19 19z m-75 -200 c-24 -49 -130 -150 -143 -137 -3 2 15
24 39 48 24 23 62 68 84 99 47 66 56 61 20 -10z"/>
<path d="M1182 2061 c-126 -23 -197 -57 -256 -122 -60 -66 -80 -129 -74 -228
4 -59 12 -89 36 -137 33 -65 109 -142 171 -174 63 -31 243 -101 338 -131 153
-49 181 -88 169 -238 -9 -101 -27 -196 -41 -210 -14 -14 -128 -29 -278 -37
l-125 -7 -25 27 c-13 14 -27 26 -31 26 -3 0 -6 -19 -6 -43 0 -68 21 -84 127
-92 106 -9 245 -1 333 20 118 28 213 115 241 219 24 89 -17 275 -77 345 -43
49 -115 84 -254 121 -197 52 -345 136 -400 226 -19 29 -21 44 -16 129 2 55 1
95 -5 95 -16 0 -10 17 17 49 35 42 140 90 233 107 42 7 127 13 189 14 86 0
112 3 112 13 0 19 -87 38 -190 43 -56 2 -120 -3 -188 -15z"/>
<path d="M1891 2050 c-8 -4 -67 -11 -132 -15 -106 -6 -119 -9 -119 -26 0 -25
38 -49 80 -49 19 0 48 -7 64 -15 47 -25 59 -19 94 46 34 63 36 74 13 59z"/>
<path d="M1722 1905 c-30 -9 -88 -11 -206 -8 -187 7 -239 -2 -298 -49 -41 -32
-78 -93 -78 -129 0 -52 108 -115 299 -173 l114 -35 41 20 c80 40 189 166 231
265 19 45 19 60 1 67 -10 4 -23 -9 -40 -37 -54 -92 -133 -171 -160 -160 -23 9
-20 22 17 68 43 54 129 178 125 181 -2 1 -22 -3 -46 -10z"/>
<path d="M1814 1178 c27 -93 34 -257 15 -334 -16 -63 -83 -134 -156 -167 -117
-52 -364 -63 -593 -26 -99 16 -151 20 -195 14 l-60 -7 170 -45 c170 -46 171
-46 345 -47 153 -1 185 2 252 21 172 50 256 109 293 206 14 38 17 67 13 154
-4 100 -7 113 -41 181 -37 71 -55 93 -43 50z"/>
<path d="M1018 823 c7 -3 16 -2 19 1 4 3 -2 6 -13 5 -11 0 -14 -3 -6 -6z"/>
</g>
</svg>
